<?xml version="1.0" encoding="utf-8"?>
<!-- Generator: Adobe Illustrator 23.0.3, SVG Export Plug-In . SVG Version: 6.00 Build 0)  -->
<svg version="1.1" id="Layer_2" xmlns="http://www.w3.org/2000/svg" xmlns:xlink="http://www.w3.org/1999/xlink" x="0px" y="0px"
	 width="733.92px" height="101.89px" viewBox="0 0 733.92 101.89" style="enable-background:new 0 0 733.92 101.89;"
	 xml:space="preserve">
<style type="text/css">
	.st0{fill:#174072;}
	.st1{opacity:0.5;fill:url(#SVGID_1_);}
	.st2{fill:url(#SVGID_2_);}
	.st3{fill:url(#SVGID_3_);}
</style>
<path id="A" class="st0" d="M178.37,80.77c0-19,23.1-22.17,42.23-22.17v-1.06c0-6.47-5.15-9.5-11.88-9.5
	c-6.2,0-12.27,3.04-16.23,6.73l-10.95-11.75c7.65-7.26,18.61-11.09,29.3-11.09c22.04,0,30.22,10.82,30.22,34.71v33.13h-19.8v-6.99
	h-0.4c-3.3,5.41-10.82,8.58-18.61,8.58C191.84,101.36,178.37,96.21,178.37,80.77z M221.27,73.38v-2.24h-2.77
	c-9.5,0-20.19,1.19-20.19,8.97c0,5.01,5.01,6.73,9.37,6.73C216.38,86.84,221.27,81.56,221.27,73.38z"/>
<path id="U" class="st0" d="M256.5,74.7V34.05h21.78v35.63c0,7.39,1.85,13.99,9.77,13.99c7.52,0,11.61-6.6,11.61-14.12v-35.5h21.64
	v65.72h-20.85v-9.11h-0.26c-3.04,5.81-10.56,10.95-19.8,10.95C262.7,101.62,256.5,87.9,256.5,74.7z"/>
<path id="T_1_" class="st0" d="M340.57,78V50.28h-10.56V34.05h10.43V16.76h21.25v17.29h15.44v16.23h-15.44v25.08
	c0,6.07,1.98,9.24,8.18,9.24c2.11,0,4.75-0.4,6.34-1.06l0.26,15.84c-2.9,1.06-7.92,1.98-12.54,1.98
	C346.38,101.36,340.57,91.99,340.57,78z"/>
<path id="O_1_" class="st0" d="M383.99,66.65c0-21.51,16.63-34.71,36.43-34.71c19.93,0,36.56,13.2,36.56,34.71
	c0,21.51-16.63,35.24-36.56,35.24C400.62,101.89,383.99,88.16,383.99,66.65z M436.12,66.65c0-8.45-5.54-16.76-15.7-16.76
	c-10.16,0-15.44,8.31-15.44,16.76s5.41,17.03,15.57,17.03C430.71,83.67,436.12,75.09,436.12,66.65z"/>
<path id="H" class="st0" d="M469.54,0h21.64v42.36h0.26c2.9-5.28,9.77-10.16,18.87-10.16c17.82,0,24.02,13.73,24.02,26.92v40.65
	h-21.78V64.14c0-7.39-1.85-13.86-9.63-13.86c-7.52,0-11.75,6.2-11.75,13.99v35.5h-21.64V0z"/>
<path id="O" class="st0" d="M545.99,66.65c0-21.51,16.63-34.71,36.43-34.71c19.93,0,36.56,13.2,36.56,34.71
	c0,21.51-16.63,35.24-36.56,35.24C562.62,101.89,545.99,88.16,545.99,66.65z M598.12,66.65c0-8.45-5.54-16.76-15.7-16.76
	c-10.16,0-15.44,8.31-15.44,16.76s5.41,17.03,15.57,17.03C592.71,83.67,598.12,75.09,598.12,66.65z"/>
<path id="S" class="st0" d="M625.7,91.72l12.14-12.8c3.83,4.22,9.77,7.39,16.1,7.39c3.56,0,7.79-1.45,7.79-5.68
	c0-4.09-4.09-5.41-13.07-7.52c-9.11-2.11-19.14-6.73-19.14-19.14c0-15.7,14.78-22.04,27.32-22.04c9.77,0,19.93,3.17,26.39,9.24
	l-11.88,12.27c-3.43-3.3-8.45-5.94-13.73-5.94c-4.09,0-8.18,1.45-8.18,5.28c0,3.7,3.56,4.75,12.01,6.6
	c10.03,2.24,20.98,7.26,20.98,20.06c0,16.63-14.65,22.44-28.11,22.44C643.65,101.89,632.56,98.32,625.7,91.72z"/>
<path id="T" class="st0" d="M697.36,78V50.28H686.8V34.05h10.43V16.76h21.25v17.29h15.44v16.23h-15.44v25.08
	c0,6.07,1.98,9.24,8.18,9.24c2.11,0,4.75-0.4,6.33-1.06l0.26,15.84c-2.9,1.06-7.92,1.98-12.54,1.98
	C703.17,101.36,697.36,91.99,697.36,78z"/>
<g id="Icon">
	<path class="st0" d="M115.97,0c-0.99,0-1.98,0.06-2.96,0.17c-9.34,1.05-18.26,6.93-23.36,15.28c-0.27,0.44-0.52,0.88-0.77,1.34
		l-0.95,1.64L69.6,50.21l19.72,34.16l0.32,0.55c1.8,2.91,5.03,4.85,8.71,4.85c2.5,0,4.78-0.9,6.56-2.38
		c3.09-2.95,5.82-6.27,8.09-9.9c0.64-1.03,1.25-2.08,1.82-3.15l0.07-0.12l30.37-52.75l1.76-3.05L157.66,0H115.97z"/>
	<linearGradient id="SVGID_1_" gradientUnits="userSpaceOnUse" x1="102.2225" y1="89.6555" x2="78.0637" y2="62.9975">
		<stop  offset="0" style="stop-color:#172E72"/>
		<stop  offset="1" style="stop-color:#174072"/>
	</linearGradient>
	<path class="st1" d="M91.75,82.82l-0.32-0.55L71.7,48.09l-0.44-0.75l-1.66,2.88l19.72,34.16l0.32,0.55
		c1.8,2.91,5.03,4.85,8.71,4.85c1.81,0,3.5-0.48,4.97-1.3c1.14-0.9,2.25-1.84,3.31-2.84c0.08-0.08,0.17-0.16,0.25-0.25
		c-1.76,1.42-3.99,2.28-6.42,2.28C96.78,87.68,93.56,85.74,91.75,82.82z"/>
	<linearGradient id="SVGID_2_" gradientUnits="userSpaceOnUse" x1="44.049" y1="17.9196" x2="61.821" y2="105.669">
		<stop  offset="0" style="stop-color:#EE5ECC"/>
		<stop  offset="0.2011" style="stop-color:#EE40FF"/>
		<stop  offset="1" style="stop-color:#CE36FF"/>
	</linearGradient>
	<path class="st2" d="M89.65,84.93l-0.32-0.55L69.59,50.19l-1.26-2.19c-0.24-0.45-0.5-0.89-0.77-1.33
		c-5.39-8.83-15.12-14.72-26.22-14.72H21.84H0V32l12.17,21.08l11.54,19.99c0,0,0,0,0,0c0.12,0.24,0.24,0.47,0.36,0.71
		c0.01,0.02,0.02,0.04,0.03,0.07c0.11,0.21,0.21,0.41,0.32,0.62c0.02,0.04,0.04,0.07,0.06,0.11c0.15,0.28,0.3,0.55,0.46,0.83
		c0.23,0.41,0.46,0.82,0.71,1.22c0.01,0.01,0.02,0.03,0.03,0.04c0.11,0.18,0.22,0.37,0.34,0.55c0.04,0.06,0.08,0.13,0.12,0.19
		c0.08,0.12,0.15,0.24,0.23,0.36c0.05,0.07,0.09,0.14,0.14,0.21c0.07,0.11,0.15,0.23,0.22,0.34c0.05,0.07,0.09,0.14,0.14,0.21
		c0.04,0.06,0.07,0.11,0.11,0.17c0.03,0.04,0.06,0.09,0.09,0.13c0.08,0.12,0.16,0.24,0.24,0.36c0.06,0.08,0.12,0.17,0.17,0.25
		c0.08,0.12,0.17,0.24,0.25,0.36c0.06,0.08,0.11,0.16,0.17,0.24c0.1,0.13,0.19,0.27,0.29,0.4c0.05,0.07,0.09,0.13,0.14,0.2
		c0.14,0.2,0.29,0.39,0.44,0.59c0,0,0,0,0,0.01c0.39,0.51,0.79,1.02,1.19,1.51c0.24,0.3,0.49,0.6,0.74,0.89c0,0,0.01,0.01,0.01,0.01
		c0.17,0.19,0.33,0.39,0.5,0.58c0.51,0.58,1.03,1.14,1.56,1.69c0.01,0.01,0.01,0.01,0.02,0.02c0.53,0.55,1.08,1.09,1.64,1.62
		c0,0,0,0,0,0c0.18,0.17,0.36,0.34,0.55,0.51c0.01,0.01,0.02,0.02,0.03,0.03c0.28,0.26,0.56,0.51,0.85,0.76
		c0.29,0.25,0.58,0.5,0.87,0.74c0.01,0.01,0.02,0.02,0.03,0.02c0.18,0.15,0.37,0.3,0.55,0.46c0.02,0.01,0.03,0.03,0.05,0.04
		c0.59,0.48,1.18,0.94,1.79,1.39c0.02,0.01,0.04,0.03,0.06,0.04c0.18,0.14,0.37,0.27,0.55,0.4c0.02,0.02,0.04,0.03,0.06,0.05
		c0.37,0.26,0.74,0.52,1.11,0.77c0.25,0.17,0.5,0.33,0.75,0.5c0.03,0.02,0.06,0.04,0.09,0.06c0.18,0.12,0.37,0.24,0.55,0.35
		c0.03,0.02,0.05,0.03,0.08,0.05c0.43,0.27,0.86,0.53,1.29,0.79c0.01,0.01,0.02,0.01,0.03,0.02c0.2,0.12,0.4,0.23,0.6,0.34
		c0.04,0.02,0.08,0.04,0.11,0.06c0.18,0.1,0.37,0.21,0.55,0.31c0.03,0.02,0.06,0.04,0.1,0.05c0.44,0.24,0.88,0.47,1.32,0.7
		c0.03,0.01,0.06,0.03,0.09,0.04c0.19,0.1,0.38,0.19,0.57,0.28c0.05,0.02,0.09,0.05,0.14,0.07c0.18,0.09,0.37,0.18,0.55,0.27
		c0.04,0.02,0.08,0.04,0.11,0.05c0.45,0.21,0.9,0.41,1.35,0.61c0.04,0.02,0.09,0.04,0.13,0.05c0.18,0.08,0.36,0.16,0.55,0.23
		c0.06,0.02,0.11,0.05,0.17,0.07c0.18,0.08,0.37,0.15,0.55,0.23c0.04,0.02,0.08,0.03,0.13,0.05c0.46,0.18,0.92,0.36,1.38,0.52
		c0.05,0.02,0.11,0.04,0.16,0.06c0.18,0.06,0.35,0.13,0.53,0.19c0.06,0.02,0.13,0.04,0.19,0.07c0.19,0.06,0.37,0.13,0.56,0.19
		c0.05,0.01,0.09,0.03,0.14,0.04c0.24,0.08,0.47,0.15,0.71,0.23c0.02,0.01,0.04,0.01,0.05,0.02c0.21,0.07,0.43,0.13,0.64,0.19
		c0.06,0.02,0.13,0.04,0.19,0.06c0.17,0.05,0.35,0.1,0.52,0.15c0.07,0.02,0.14,0.04,0.21,0.06c0.19,0.05,0.38,0.1,0.57,0.15
		c0.05,0.01,0.09,0.02,0.14,0.04c0.24,0.06,0.48,0.12,0.72,0.18c0.04,0.01,0.08,0.02,0.12,0.03c0.2,0.05,0.4,0.09,0.6,0.14
		c0.07,0.02,0.15,0.03,0.22,0.05c0.17,0.04,0.34,0.08,0.52,0.11c0.07,0.02,0.15,0.03,0.22,0.05c0.2,0.04,0.39,0.08,0.59,0.12
		c0.04,0.01,0.09,0.02,0.13,0.03c0.24,0.05,0.49,0.09,0.73,0.13c0.06,0.01,0.11,0.02,0.17,0.03c0.19,0.03,0.38,0.06,0.56,0.1
		c0.08,0.01,0.16,0.03,0.24,0.04c0.17,0.03,0.34,0.05,0.52,0.08c0.08,0.01,0.16,0.02,0.23,0.03c0.21,0.03,0.41,0.06,0.62,0.08
		c0.04,0.01,0.08,0.01,0.12,0.02c0.25,0.03,0.49,0.06,0.74,0.09c0.07,0.01,0.13,0.01,0.2,0.02c0.18,0.02,0.36,0.04,0.55,0.06
		c0.08,0.01,0.17,0.02,0.25,0.02c0.17,0.02,0.35,0.03,0.52,0.05c0.08,0.01,0.16,0.01,0.24,0.02c0.22,0.02,0.45,0.03,0.67,0.05
		c0.03,0,0.05,0,0.08,0.01c0.25,0.02,0.5,0.03,0.75,0.04c0.07,0,0.15,0.01,0.22,0.01c0.18,0.01,0.36,0.02,0.54,0.02
		c0.09,0,0.17,0.01,0.26,0.01c0.18,0.01,0.35,0.01,0.53,0.01c0.08,0,0.16,0,0.24,0c0.25,0,0.51,0.01,0.76,0.01
		c0.26,0,0.53,0,0.79-0.01c0.08,0,0.16,0,0.23,0c0.19,0,0.39-0.01,0.58-0.01c0.08,0,0.16,0,0.24-0.01c0.25-0.01,0.49-0.02,0.74-0.03
		c0.01,0,0.03,0,0.04,0c0.26-0.01,0.52-0.03,0.78-0.05c0.07,0,0.14-0.01,0.22-0.02c0.2-0.01,0.39-0.03,0.59-0.04
		c0.08-0.01,0.15-0.01,0.23-0.02c0.24-0.02,0.48-0.04,0.71-0.07c0.02,0,0.04,0,0.06-0.01c0.26-0.03,0.52-0.06,0.78-0.09
		c0.06-0.01,0.13-0.02,0.19-0.02c0.2-0.02,0.4-0.05,0.6-0.08c0.07-0.01,0.14-0.02,0.21-0.03c0.24-0.03,0.47-0.07,0.71-0.1
		c0.02,0,0.04-0.01,0.06-0.01c0.26-0.04,0.52-0.08,0.78-0.13c0.05-0.01,0.1-0.02,0.15-0.03c0.21-0.04,0.42-0.07,0.63-0.11
		c0.06-0.01,0.12-0.02,0.18-0.03c0.24-0.04,0.48-0.09,0.71-0.14c0.02,0,0.03-0.01,0.05-0.01c0.26-0.05,0.52-0.11,0.78-0.17
		c0.04-0.01,0.07-0.02,0.11-0.02c0.22-0.05,0.44-0.1,0.66-0.15c0.05-0.01,0.1-0.02,0.15-0.04c0.24-0.06,0.48-0.12,0.72-0.18
		c0.01,0,0.02,0,0.03-0.01c0.26-0.07,0.53-0.14,0.79-0.21c0.02,0,0.04-0.01,0.05-0.01c0.24-0.06,0.47-0.13,0.7-0.2
		c0.04-0.01,0.08-0.02,0.12-0.04c0.25-0.07,0.49-0.14,0.73-0.22c0,0,0.01,0,0.01,0c0.52-0.16,1.03-0.33,1.54-0.5
		c0.03-0.01,0.06-0.02,0.09-0.03c0.38-0.13,0.76-0.27,1.13-0.41c0.38-0.14,0.75-0.28,1.12-0.43c0.02-0.01,0.04-0.02,0.06-0.02
		c0.52-0.21,1.04-0.43,1.55-0.65c0.23-0.1,0.46-0.2,0.68-0.31c0.01,0,0.02-0.01,0.03-0.01c0.74-0.34,1.47-0.7,2.19-1.07
		c0,0,0.01,0,0.01-0.01c0.73-0.38,1.44-0.77,2.15-1.18c0,0,0,0,0,0c3.54-2.06,6.81-4.52,9.74-7.34c-1.79,1.53-4.11,2.46-6.65,2.46
		C94.68,89.78,91.45,87.84,89.65,84.93z"/>
	<linearGradient id="SVGID_3_" gradientUnits="userSpaceOnUse" x1="70.7559" y1="34.6244" x2="73.7229" y2="80.1189">
		<stop  offset="0" style="stop-color:#C718EC"/>
		<stop  offset="1" style="stop-color:#D518FF;stop-opacity:0"/>
	</linearGradient>
	<path class="st3" d="M89.65,84.93l-0.32-0.55L69.59,50.19l-0.02-0.04L43.96,94.68c0.02,0.01,0.03,0.02,0.05,0.03
		c0.51,0.29,1.02,0.57,1.54,0.85c0.15,0.08,0.31,0.16,0.46,0.24c0.54,0.28,1.08,0.55,1.62,0.81c0.02,0.01,0.04,0.02,0.06,0.03
		c0.61,0.29,1.23,0.57,1.85,0.83c0.03,0.01,0.06,0.03,0.1,0.04c0.54,0.23,1.1,0.45,1.65,0.66c0.15,0.06,0.3,0.12,0.45,0.17
		c1.33,0.5,2.69,0.94,4.08,1.33c0,0,0,0,0.01,0c0.01,0,0.02,0.01,0.03,0.01c0.71,0.2,1.42,0.38,2.14,0.54
		c0.03,0.01,0.06,0.01,0.08,0.02c0.71,0.16,1.43,0.31,2.15,0.45c0.04,0.01,0.07,0.01,0.11,0.02c0.72,0.13,1.44,0.25,2.17,0.35
		c0.04,0.01,0.08,0.01,0.12,0.02c0.73,0.1,1.46,0.18,2.2,0.25c0.04,0,0.07,0.01,0.11,0.01c0.74,0.07,1.49,0.12,2.24,0.15
		c0.03,0,0.06,0,0.08,0c0,0,0,0,0.01,0c0.77,0.03,1.54,0.05,2.32,0.05c1.11,0,2.2-0.04,3.29-0.11c0.02,0,0.04,0,0.06,0
		c1.08-0.07,2.14-0.17,3.2-0.31c0.03,0,0.06-0.01,0.09-0.01c1.05-0.14,2.09-0.3,3.12-0.5c0.03-0.01,0.06-0.01,0.08-0.02
		c1.03-0.2,2.06-0.43,3.07-0.7c0.03-0.01,0.05-0.01,0.08-0.02c0.76-0.2,1.51-0.41,2.26-0.65c0.09-0.03,0.19-0.06,0.28-0.09
		c0.66-0.21,1.32-0.43,1.98-0.67c0.07-0.03,0.15-0.05,0.22-0.08c0.64-0.24,1.27-0.49,1.89-0.75c0.19-0.08,0.38-0.16,0.57-0.24
		c0.52-0.22,1.03-0.45,1.53-0.69c0.38-0.18,0.75-0.36,1.12-0.55c0.35-0.18,0.71-0.36,1.06-0.54c0.37-0.2,0.74-0.4,1.11-0.61
		c0.32-0.18,0.64-0.36,0.96-0.55c0.67-0.39,1.33-0.81,1.98-1.23c0.13-0.09,0.27-0.17,0.4-0.25c0.77-0.52,1.53-1.05,2.28-1.61
		c0.2-0.15,0.39-0.31,0.59-0.46c0.55-0.42,1.08-0.85,1.61-1.29c0.24-0.2,0.47-0.4,0.71-0.6c0.5-0.43,0.99-0.88,1.47-1.33
		c0.11-0.1,0.22-0.2,0.33-0.31c-1.78,1.48-4.06,2.38-6.56,2.38C94.68,89.78,91.45,87.84,89.65,84.93z"/>
</g>
</svg>
